<svg xmlns="http://www.w3.org/2000/svg" xmlns:xlink="http://www.w3.org/1999/xlink" width="163pt" height="218pt" viewBox="0 0 163 218"><g id="graph0" class="graph" transform="scale(1 1) rotate(0) translate(4 214)"><title>g</title><polygon fill="#fff" stroke="transparent" points="-4 4 -4 -214 159 -214 159 4 -4 4"/><g id="node1" class="node"><title>0</title><ellipse cx="81" cy="-192" fill="none" stroke="#000" rx="18" ry="18"/><text x="81" y="-188.3" fill="#000" font-family="Times,serif" font-size="14" text-anchor="middle">0</text></g><g id="edge1" class="edge"><title>0-&gt;0</title><path fill="none" stroke="#000" d="M98.7817,-195.775C108.3149,-196.4165 117,-195.1582 117,-192 117,-190.0755 113.7749,-188.8564 109.0981,-188.3429"/><polygon fill="#000" stroke="#000" points="108.821 -184.84 98.782 -188.225 108.741 -191.839 108.821 -184.84"/><text x="122" y="-188.3" fill="#000" font-family="Times,serif" font-size="14" text-anchor="middle">A</text></g><g id="edge3" class="edge"><title>0-&gt;0</title><path fill="none" stroke="#000" d="M98.1418,-198.1447C115.585,-201.7592 135,-199.7109 135,-192 135,-185.7951 122.4283,-183.2569 108.4287,-184.3855"/><polygon fill="#000" stroke="#000" points="107.546 -180.976 98.142 -185.855 108.536 -187.906 107.546 -180.976"/><text x="140" y="-188.3" fill="#000" font-family="Times,serif" font-size="14" text-anchor="middle">C</text></g><g id="node2" class="node"><title>1</title><ellipse cx="18" cy="-105" fill="none" stroke="#000" rx="18" ry="18"/><text x="18" y="-101.3" fill="#000" font-family="Times,serif" font-size="14" text-anchor="middle">1</text></g><g id="edge2" class="edge"><title>0-&gt;1</title><path fill="none" stroke="#000" d="M65.3653,-182.3023C56.0402,-175.8372 44.5788,-166.597 37,-156 31.9759,-148.975 28.1172,-140.4648 25.2323,-132.4254"/><polygon fill="#000" stroke="#000" points="28.479 -131.089 22.084 -122.641 21.816 -133.233 28.479 -131.089"/><text x="42" y="-144.8" fill="#000" font-family="Times,serif" font-size="14" text-anchor="middle">B</text></g><g id="edge6" class="edge"><title>1-&gt;0</title><path fill="none" stroke="#000" d="M29.5914,-118.7896C35.0215,-125.399 41.4922,-133.4943 47,-141 53.3546,-149.6597 59.9839,-159.4192 65.6833,-168.0649"/><polygon fill="#000" stroke="#000" points="62.841 -170.114 71.236 -176.579 68.705 -166.291 62.841 -170.114"/><text x="61" y="-144.8" fill="#000" font-family="Times,serif" font-size="14" text-anchor="middle">C</text></g><g id="edge5" class="edge"><title>1-&gt;1</title><path fill="none" stroke="#000" d="M34.6641,-112.3828C44.625,-114.0234 54,-111.5625 54,-105 54,-100.7959 50.1525,-98.2751 44.7682,-97.4375"/><polygon fill="#000" stroke="#000" points="44.6 -93.94 34.664 -97.617 44.725 -100.939 44.6 -93.94"/><text x="59" y="-101.3" fill="#000" font-family="Times,serif" font-size="14" text-anchor="middle">B</text></g><g id="node3" class="node"><title>2</title><ellipse cx="81" cy="-18" fill="none" stroke="#000" rx="18" ry="18"/><text x="81" y="-14.3" fill="#000" font-family="Times,serif" font-size="14" text-anchor="middle">2</text></g><g id="edge4" class="edge"><title>1-&gt;2</title><path fill="none" stroke="#000" d="M22.0845,-87.3586C25.0666,-76.9865 29.8546,-63.9911 37,-54 42.4473,-46.3834 49.9003,-39.4677 57.1242,-33.7796"/><polygon fill="#000" stroke="#000" points="59.398 -36.452 65.365 -27.698 55.241 -30.82 59.398 -36.452"/><text x="42" y="-57.8" fill="#000" font-family="Times,serif" font-size="14" text-anchor="middle">A</text></g><g id="edge7" class="edge"><title>2-&gt;0</title><path fill="none" stroke="#000" d="M81,-36.0471C81,-66.2455 81,-127.2509 81,-163.3619"/><polygon fill="#000" stroke="#000" points="77.5 -163.708 81 -173.708 84.5 -163.708 77.5 -163.708"/><text x="86" y="-101.3" fill="#000" font-family="Times,serif" font-size="14" text-anchor="middle">A</text></g><g id="edge9" class="edge"><title>2-&gt;0</title><path fill="none" stroke="#000" d="M88.8828,-34.4696C91.3568,-40.4741 93.7635,-47.409 95,-54 103.3588,-98.5561 103.3588,-111.4439 95,-156 94.3818,-159.2955 93.471,-162.677 92.4055,-165.9852"/><polygon fill="#000" stroke="#000" points="89.062 -164.937 88.883 -175.53 95.629 -167.361 89.062 -164.937"/><text x="106" y="-101.3" fill="#000" font-family="Times,serif" font-size="14" text-anchor="middle">C</text></g><g id="edge8" class="edge"><title>2-&gt;1</title><path fill="none" stroke="#000" d="M71.2356,-33.4213C64.6226,-43.6678 55.562,-57.3322 47,-69 43.5576,-73.6911 39.7391,-78.6124 36.0336,-83.2574"/><polygon fill="#000" stroke="#000" points="33.166 -81.237 29.591 -91.21 38.605 -85.643 33.166 -81.237"/><text x="61" y="-57.8" fill="#000" font-family="Times,serif" font-size="14" text-anchor="middle">B</text></g></g></svg>