<svg xmlns="http://www.w3.org/2000/svg" xmlns:xlink="http://www.w3.org/1999/xlink" width="266pt" height="218pt" viewBox="0 0 266 218"><g id="graph0" class="graph" transform="scale(1 1) rotate(0) translate(4 214)"><title>g</title><polygon fill="#fff" stroke="none" points="-4 4 -4 -214 262 -214 262 4 -4 4"/><g id="node1" class="node"><title>0</title><ellipse cx="156" cy="-192" fill="none" stroke="#000" rx="18" ry="18"/><text x="156" y="-188.3" font-family="Times,serif" font-size="14" text-anchor="middle">0</text></g><g id="node2" class="node"><title>1</title><ellipse cx="100" cy="-105" fill="none" stroke="#000" rx="18" ry="18"/><text x="100" y="-101.3" font-family="Times,serif" font-size="14" text-anchor="middle">1</text></g><g id="edge1" class="edge"><title>0-&gt;1</title><path fill="none" stroke="#000" d="M146.088,-176.765C141.722,-170.438 136.558,-162.879 132,-156 126.231,-147.293 120.014,-137.644 114.609,-129.164"/><polygon fill="#000" stroke="#000" points="117.436 -127.086 109.122 -120.519 111.526 -130.838 117.436 -127.086"/><text x="137" y="-144.8" font-family="Times,serif" font-size="14" text-anchor="middle">A</text></g><g id="node3" class="node"><title>3</title><ellipse cx="156" cy="-18" fill="none" stroke="#000" rx="18" ry="18"/><text x="156" y="-14.3" font-family="Times,serif" font-size="14" text-anchor="middle">3</text></g><g id="edge2" class="edge"><title>0-&gt;3</title><path fill="none" stroke="#000" d="M156,-173.879C156,-144.001 156,-82.1129 156,-46.2736"/><polygon fill="#000" stroke="#000" points="159.5 -46.052 156 -36.052 152.5 -46.052 159.5 -46.052"/><text x="161" y="-101.3" font-family="Times,serif" font-size="14" text-anchor="middle">B</text></g><g id="edge3" class="edge"><title>0-&gt;3</title><path fill="none" stroke="#000" d="M163.733,-175.358C166.259,-169.443 168.738,-162.555 170,-156 178.573,-111.485 178.573,-98.5154 170,-54 169.369,-50.7225 168.433,-47.3619 167.34,-44.0812"/><polygon fill="#000" stroke="#000" points="170.572 -42.734 163.733 -34.642 164.034 -45.233 170.572 -42.734"/><text x="181" y="-101.3" font-family="Times,serif" font-size="14" text-anchor="middle">C</text></g><g id="edge4" class="edge"><title>1-&gt;3</title><path fill="none" stroke="#000" d="M95.549,-87.1911C93.7957,-76.9548 93.3534,-63.973 99,-54 106.661,-40.4691 115.753,-44.1429 129,-36 130.115,-35.3147 131.254,-34.6111 132.403,-33.8984"/><polygon fill="#000" stroke="#000" points="134.558 -36.679 141.181 -28.41 130.847 -30.744 134.558 -36.679"/><text x="104" y="-57.8" font-family="Times,serif" font-size="14" text-anchor="middle">A</text></g><g id="edge6" class="edge"><title>1-&gt;3</title><path fill="none" stroke="#000" d="M109.122,-89.4806C115.459,-79.4591 124.144,-65.8559 132,-54 134.635,-50.0232 137.473,-45.819 140.241,-41.7569"/><polygon fill="#000" stroke="#000" points="143.317 -43.461 146.088 -33.235 137.545 -39.501 143.317 -43.461"/><text x="137" y="-57.8" font-family="Times,serif" font-size="14" text-anchor="middle">C</text></g><g id="node4" class="node"><title>2</title><ellipse cx="18" cy="-18" fill="none" stroke="#000" rx="18" ry="18"/><text x="18" y="-14.3" font-family="Times,serif" font-size="14" text-anchor="middle">2</text></g><g id="edge5" class="edge"><title>1-&gt;2</title><path fill="none" stroke="#000" d="M87.9006,-91.458C74.5773,-77.6472 52.9698,-55.2492 37.3014,-39.0075"/><polygon fill="#000" stroke="#000" points="39.611 -36.36 30.149 -31.593 34.573 -41.221 39.611 -36.36"/><text x="68" y="-57.8" font-family="Times,serif" font-size="14" text-anchor="middle">B</text></g><g id="edge10" class="edge"><title>3-&gt;3</title><path fill="none" stroke="#000" d="M174.153,-20.5327C183.539,-20.9224 192,-20.0781 192,-18 192,-16.7336 188.858,-15.9255 184.28,-15.5755"/><polygon fill="#000" stroke="#000" points="184.19 -12.074 174.153 -15.467 184.115 -19.074 184.19 -12.074"/><text x="197" y="-14.3" font-family="Times,serif" font-size="14" text-anchor="middle">A</text></g><g id="edge11" class="edge"><title>3-&gt;3</title><path fill="none" stroke="#000" d="M173.699,-22.1721C190.996,-24.4766 210,-23.0859 210,-18 210,-13.9074 197.694,-12.2076 183.875,-12.9005"/><polygon fill="#000" stroke="#000" points="183.34 -9.435 173.699 -13.828 183.976 -16.406 183.34 -9.435"/><text x="215" y="-14.3" font-family="Times,serif" font-size="14" text-anchor="middle">B</text></g><g id="edge12" class="edge"><title>3-&gt;3</title><path fill="none" stroke="#000" d="M173.353,-23.1713C197.818,-28.0499 228,-26.3262 228,-18 228,-10.7796 205.302,-8.52439 183.319,-11.2342"/><polygon fill="#000" stroke="#000" points="182.675 -7.793 173.353 -12.829 183.781 -14.705 182.675 -7.793"/><text x="233" y="-14.3" font-family="Times,serif" font-size="14" text-anchor="middle">C</text></g><g id="edge7" class="edge"><title>2-&gt;2</title><path fill="none" stroke="#000" d="M36.1527,-20.5327C45.5391,-20.9224 54,-20.0781 54,-18 54,-16.7336 50.8581,-15.9255 46.2796,-15.5755"/><polygon fill="#000" stroke="#000" points="46.19 -12.074 36.153 -15.467 46.115 -19.074 46.19 -12.074"/><text x="59" y="-14.3" font-family="Times,serif" font-size="14" text-anchor="middle">A</text></g><g id="edge8" class="edge"><title>2-&gt;2</title><path fill="none" stroke="#000" d="M35.6991,-22.1721C52.9958,-24.4766 72,-23.0859 72,-18 72,-13.9074 59.6944,-12.2076 45.875,-12.9005"/><polygon fill="#000" stroke="#000" points="45.34 -9.435 35.699 -13.828 45.975 -16.406 45.34 -9.435"/><text x="77" y="-14.3" font-family="Times,serif" font-size="14" text-anchor="middle">B</text></g><g id="edge9" class="edge"><title>2-&gt;2</title><path fill="none" stroke="#000" d="M35.3534,-23.1713C59.8176,-28.0499 90,-26.3262 90,-18 90,-10.7796 67.3024,-8.52439 45.3194,-11.2342"/><polygon fill="#000" stroke="#000" points="44.675 -7.793 35.353 -12.829 45.781 -14.705 44.675 -7.793"/><text x="95" y="-14.3" font-family="Times,serif" font-size="14" text-anchor="middle">C</text></g></g></svg>