<svg xmlns="http://www.w3.org/2000/svg" xmlns:xlink="http://www.w3.org/1999/xlink" width="128pt" height="218pt" viewBox="0 0 128 218"><g id="graph0" class="graph" transform="scale(1 1) rotate(0) translate(4 214)"><title>g</title><polygon fill="#fff" stroke="transparent" points="-4 4 -4 -214 124 -214 124 4 -4 4"/><g id="node1" class="node"><title>0</title><ellipse cx="18" cy="-192" fill="none" stroke="#000" rx="18" ry="18"/><text x="18" y="-188.3" fill="#000" font-family="Times,serif" font-size="14" text-anchor="middle">0</text></g><g id="node2" class="node"><title>1</title><ellipse cx="18" cy="-105" fill="none" stroke="#000" rx="18" ry="18"/><text x="18" y="-101.3" fill="#000" font-family="Times,serif" font-size="14" text-anchor="middle">1</text></g><g id="edge1" class="edge"><title>0-&gt;1</title><path fill="none" stroke="#000" d="M18,-173.9735C18,-162.1918 18,-146.5607 18,-133.1581"/><polygon fill="#000" stroke="#000" points="21.5 -133.003 18 -123.003 14.5 -133.003 21.5 -133.003"/><text x="23" y="-144.8" fill="#000" font-family="Times,serif" font-size="14" text-anchor="middle">A</text></g><g id="node3" class="node"><title>2</title><ellipse cx="18" cy="-18" fill="none" stroke="#000" rx="18" ry="18"/><text x="18" y="-14.3" fill="#000" font-family="Times,serif" font-size="14" text-anchor="middle">2</text></g><g id="edge2" class="edge"><title>1-&gt;2</title><path fill="none" stroke="#000" d="M18,-86.9735C18,-75.1918 18,-59.5607 18,-46.1581"/><polygon fill="#000" stroke="#000" points="21.5 -46.003 18 -36.003 14.5 -46.003 21.5 -46.003"/><text x="23" y="-57.8" fill="#000" font-family="Times,serif" font-size="14" text-anchor="middle">B</text></g><g id="edge3" class="edge"><title>2-&gt;2</title><path fill="none" stroke="#000" d="M36.1527,-20.5327C45.5391,-20.9224 54,-20.0781 54,-18 54,-16.7336 50.8581,-15.9255 46.2796,-15.5755"/><polygon fill="#000" stroke="#000" points="46.19 -12.074 36.153 -15.467 46.115 -19.074 46.19 -12.074"/><text x="59" y="-14.3" fill="#000" font-family="Times,serif" font-size="14" text-anchor="middle">A</text></g><g id="edge4" class="edge"><title>2-&gt;2</title><path fill="none" stroke="#000" d="M35.6991,-22.1721C52.9958,-24.4766 72,-23.0859 72,-18 72,-13.9074 59.6944,-12.2076 45.875,-12.9005"/><polygon fill="#000" stroke="#000" points="45.34 -9.435 35.699 -13.828 45.975 -16.406 45.34 -9.435"/><text x="77" y="-14.3" fill="#000" font-family="Times,serif" font-size="14" text-anchor="middle">B</text></g><g id="edge5" class="edge"><title>2-&gt;2</title><path fill="none" stroke="#000" d="M35.3534,-23.1713C59.8176,-28.0499 90,-26.3262 90,-18 90,-10.7796 67.3024,-8.5244 45.3194,-11.2342"/><polygon fill="#000" stroke="#000" points="44.675 -7.793 35.353 -12.829 45.781 -14.705 44.675 -7.793"/><text x="95" y="-14.3" fill="#000" font-family="Times,serif" font-size="14" text-anchor="middle">C</text></g></g></svg>