<svg xmlns="http://www.w3.org/2000/svg" xmlns:xlink="http://www.w3.org/1999/xlink" width="278pt" height="188pt" viewBox="0 0 278 188"><g id="graph0" class="graph" transform="scale(1 1) rotate(0) translate(4 184)"><title>arbre_tournoi</title><polygon fill="#fff" stroke="none" points="-4 4 -4 -184 274 -184 274 4 -4 4"/><g id="node1" class="node"><title>1</title><ellipse cx="135" cy="-162" fill="none" stroke="#000" rx="27" ry="18"/><text x="135" y="-158.3" font-family="Times,serif" font-size="14" text-anchor="middle">1</text></g><g id="node2" class="node"><title>2</title><ellipse cx="99" cy="-90" fill="none" stroke="#000" rx="27" ry="18"/><text x="99" y="-86.3" font-family="Times,serif" font-size="14" text-anchor="middle">2</text></g><g id="edge1" class="edge"><title>1-&gt;2</title><path fill="none" stroke="#000" d="M126.65,-144.765C122.288,-136.283 116.853,-125.714 111.959,-116.197"/><polygon fill="#000" stroke="#000" points="114.99 -114.439 107.304 -107.147 108.765 -117.641 114.99 -114.439"/></g><g id="node3" class="node"><title>3</title><ellipse cx="171" cy="-90" fill="none" stroke="#000" rx="27" ry="18"/><text x="171" y="-86.3" font-family="Times,serif" font-size="14" text-anchor="middle">3</text></g><g id="edge2" class="edge"><title>1-&gt;3</title><path fill="none" stroke="#000" d="M143.35,-144.765C147.712,-136.283 153.147,-125.714 158.041,-116.197"/><polygon fill="#000" stroke="#000" points="161.235 -117.641 162.696 -107.147 155.01 -114.439 161.235 -117.641"/></g><g id="node4" class="node"><title>4</title><ellipse cx="27" cy="-18" fill="none" stroke="#000" rx="27" ry="18"/><text x="27" y="-14.3" font-family="Times,serif" font-size="14" text-anchor="middle">4</text></g><g id="edge3" class="edge"><title>2-&gt;4</title><path fill="none" stroke="#000" d="M84.4297,-74.8345C74.2501,-64.9376 60.4761,-51.5462 48.9694,-40.3591"/><polygon fill="#000" stroke="#000" points="51.406 -37.846 41.796 -33.385 46.526 -42.865 51.406 -37.846"/></g><g id="node5" class="node"><title>5</title><ellipse cx="99" cy="-18" fill="none" stroke="#000" rx="27" ry="18"/><text x="99" y="-14.3" font-family="Times,serif" font-size="14" text-anchor="middle">5</text></g><g id="edge4" class="edge"><title>2-&gt;5</title><path fill="none" stroke="#000" d="M99,-71.6966C99,-63.9827 99,-54.7125 99,-46.1124"/><polygon fill="#000" stroke="#000" points="102.5 -46.104 99 -36.104 95.5 -46.104 102.5 -46.104"/></g><g id="node6" class="node"><title>6</title><ellipse cx="171" cy="-18" fill="none" stroke="#000" rx="27" ry="18"/><text x="171" y="-14.3" font-family="Times,serif" font-size="14" text-anchor="middle">6</text></g><g id="edge5" class="edge"><title>3-&gt;6</title><path fill="none" stroke="#000" d="M171,-71.6966C171,-63.9827 171,-54.7125 171,-46.1124"/><polygon fill="#000" stroke="#000" points="174.5 -46.104 171 -36.104 167.5 -46.104 174.5 -46.104"/></g><g id="node7" class="node"><title>7</title><ellipse cx="243" cy="-18" fill="none" stroke="#000" rx="27" ry="18"/><text x="243" y="-14.3" font-family="Times,serif" font-size="14" text-anchor="middle">7</text></g><g id="edge6" class="edge"><title>3-&gt;7</title><path fill="none" stroke="#000" d="M185.57,-74.8345C195.75,-64.9376 209.524,-51.5462 221.031,-40.3591"/><polygon fill="#000" stroke="#000" points="223.474 -42.865 228.204 -33.385 218.595 -37.846 223.474 -42.865"/></g></g></svg>