<svg xmlns="http://www.w3.org/2000/svg" xmlns:xlink="http://www.w3.org/1999/xlink" width="206pt" height="116pt" viewBox="0 0 206 116"><g id="graph0" class="graph" transform="scale(1 1) rotate(0) translate(4 112)"><title>exemple</title><polygon fill="#fff" stroke="none" points="-4 4 -4 -112 202 -112 202 4 -4 4"/><g id="node1" class="node"><title>0</title><ellipse cx="63" cy="-90" fill="none" stroke="#000" rx="27" ry="18"/><text x="63" y="-86.3" font-family="Times,serif" font-size="14" text-anchor="middle">0</text></g><g id="node2" class="node"><title>1</title><ellipse cx="27" cy="-18" fill="none" stroke="#000" rx="27" ry="18"/><text x="27" y="-14.3" font-family="Times,serif" font-size="14" text-anchor="middle">1</text></g><g id="edge1" class="edge"><title>0--1</title><path fill="none" stroke="#000" d="M54.6504,-72.7646C48.8345,-61.456 41.1103,-46.4367 35.3043,-35.1473"/></g><g id="node3" class="node"><title>2</title><ellipse cx="99" cy="-18" fill="none" stroke="#000" rx="27" ry="18"/><text x="99" y="-14.3" font-family="Times,serif" font-size="14" text-anchor="middle">2</text></g><g id="edge2" class="edge"><title>0--2</title><path fill="none" stroke="#000" d="M71.3496,-72.7646C77.1655,-61.456 84.8897,-46.4367 90.6957,-35.1473"/></g><g id="node4" class="node"><title>3</title><ellipse cx="171" cy="-90" fill="none" stroke="#000" rx="27" ry="18"/><text x="171" y="-86.3" font-family="Times,serif" font-size="14" text-anchor="middle">3</text></g><g id="node5" class="node"><title>4</title><ellipse cx="171" cy="-18" fill="none" stroke="#000" rx="27" ry="18"/><text x="171" y="-14.3" font-family="Times,serif" font-size="14" text-anchor="middle">4</text></g><g id="edge3" class="edge"><title>3--4</title><path fill="none" stroke="#000" d="M171,-71.6966C171,-60.8463 171,-46.9167 171,-36.1043"/></g></g></svg>