<svg xmlns="http://www.w3.org/2000/svg" xmlns:xlink="http://www.w3.org/1999/xlink" width="160pt" height="326pt" viewBox="0 0 160 326"><g id="graph0" class="graph" transform="scale(1 1) rotate(0) translate(4 322)"><title>G</title><polygon fill="#fff" stroke="none" points="-4 4 -4 -322 156 -322 156 4 -4 4"/><g id="node1" class="node"><title>som0</title><ellipse cx="73" cy="-300" fill="none" stroke="#000" rx="27" ry="18"/><text x="73" y="-296.3" font-family="Times,serif" font-size="14" text-anchor="middle">0</text></g><g id="node2" class="node"><title>som1</title><ellipse cx="27" cy="-159" fill="none" stroke="#000" rx="27" ry="18"/><text x="27" y="-155.3" font-family="Times,serif" font-size="14" text-anchor="middle">1</text></g><g id="edge1" class="edge"><title>som0-&gt;som1</title><path fill="none" stroke="#000" d="M62.0975,-283.156C58.4731,-277.334 54.6821,-270.559 52,-264 41.7183,-238.856 35.0239,-208.489 31.1743,-187.078"/><polygon fill="#000" stroke="#000" points="34.597 -186.329 29.463 -177.062 27.697 -187.508 34.597 -186.329"/><text x="55.5" y="-252.8" font-family="Times,serif" font-size="14" text-anchor="middle">2</text></g><g id="node3" class="node"><title>som2</title><ellipse cx="79" cy="-105" fill="none" stroke="#000" rx="27" ry="18"/><text x="79" y="-101.3" font-family="Times,serif" font-size="14" text-anchor="middle">2</text></g><g id="edge2" class="edge"><title>som0-&gt;som2</title><path fill="none" stroke="#000" d="M73.5325,-281.873C74.5754,-248.323 76.8951,-173.707 78.1517,-133.287"/><polygon fill="#000" stroke="#000" points="81.656 -133.193 78.469 -123.089 74.66 -132.975 81.656 -133.193"/><text x="79.5" y="-209.3" font-family="Times,serif" font-size="14" text-anchor="middle">4</text></g><g id="node4" class="node"><title>som3</title><ellipse cx="125" cy="-213" fill="none" stroke="#000" rx="27" ry="18"/><text x="125" y="-209.3" font-family="Times,serif" font-size="14" text-anchor="middle">3</text></g><g id="edge3" class="edge"><title>som0-&gt;som3</title><path fill="none" stroke="#000" stroke-width="2" d="M82.7808,-283.012C90.4071,-270.546 101.133,-253.013 109.865,-238.739"/><polygon fill="#000" stroke="#000" stroke-width="2" points="113.03 -240.273 115.263 -229.916 107.059 -236.62 113.03 -240.273"/><text x="105.5" y="-252.8" font-family="Times,serif" font-size="14" text-anchor="middle">2</text></g><g id="node5" class="node"><title>som4</title><ellipse cx="48" cy="-18" fill="none" stroke="#000" rx="27" ry="18"/><text x="48" y="-14.3" font-family="Times,serif" font-size="14" text-anchor="middle">4</text></g><g id="edge4" class="edge"><title>som1-&gt;som4</title><path fill="none" stroke="#000" d="M28.9151,-141.04C30.5978,-126.636 33.2078,-105.427 36,-87 38.0419,-73.5241 40.6371,-58.6054 42.8913,-46.1836"/><polygon fill="#000" stroke="#000" points="46.396 -46.477 44.762 -36.009 39.511 -45.211 46.396 -46.477"/><text x="39.5" y="-101.3" font-family="Times,serif" font-size="14" text-anchor="middle">1</text></g><g id="edge5" class="edge"><title>som2-&gt;som4</title><path fill="none" stroke="#000" stroke-width="2" d="M72.8754,-87.2067C68.5021,-75.2156 62.5339,-58.8511 57.5396,-45.1571"/><polygon fill="#000" stroke="#000" stroke-width="2" points="60.826 -43.954 54.112 -35.758 54.25 -46.352 60.826 -43.954"/><text x="68.5" y="-57.8" font-family="Times,serif" font-size="14" text-anchor="middle">4</text></g><g id="edge6" class="edge"><title>som3-&gt;som2</title><path fill="none" stroke="#000" stroke-width="2" d="M117.812,-195.438C110.42,-178.402 98.8024,-151.632 90.2025,-131.815"/><polygon fill="#000" stroke="#000" stroke-width="2" points="93.329 -130.226 86.137 -122.446 86.907 -133.013 93.329 -130.226"/><text x="111.5" y="-155.3" font-family="Times,serif" font-size="14" text-anchor="middle">1</text></g></g></svg>